<svg width="63" height="49" viewBox="0 0 63 49" fill="none" xmlns="http://www.w3.org/2000/svg">
<path fill-rule="evenodd" clip-rule="evenodd" d="M30.7179 48L62 15.1505L30.7179 1V24.5L14.8205 23.2366L8.41026 19.1935L2 15.1505L30.7179 48Z" fill="#5C75F9"/>
<path d="M30.7179 1L62 15.1505M30.7179 1L19.4359 13.129M30.7179 1V24.5M30.7179 1L47.1282 23.2366M30.7179 1L27.1282 17.172M30.7179 48L62 15.1505M30.7179 48L2 15.1505M30.7179 48V24.5M30.7179 48L47.1282 23.2366M30.7179 48L14.8205 23.2366M62 15.1505L47.1282 23.2366M2 15.1505L19.4359 13.129M2 15.1505L8.41026 19.1935M19.4359 13.129C20.1869 13.5238 21.359 14.1398 21.359 14.1398L23.2821 15.1505M30.7179 24.5L47.1282 23.2366M30.7179 24.5L14.8205 23.2366M30.7179 24.5L27.1282 17.172M14.8205 23.2366L27.1282 17.172M14.8205 23.2366L8.41026 19.1935M27.1282 17.172L23.2821 15.1505M23.2821 15.1505L8.41026 19.1935" stroke="#657EFF"/>
</svg>
